<svg xmlns="http://www.w3.org/2000/svg" viewBox="0 0 426.09 536.12">
  <g>
    <rect width="426.09" height="536.12" style="fill: none"/>
    <rect y="3.62" width="425.72" height="425.72" style="fill: #f5a200"/>
    <rect width="426.09" height="536.12" style="fill: none"/>
    <path d="M149.87,368.88H83.46V138.13H40V99c29.81.42,49.39-11.93,60-40.87h49.81Z" style="fill: #fff"/>
    <rect width="426.09" height="536.12" style="fill: none"/>
    <path d="M376.35,305.86v63H213.72v-66C287.79,202,311.64,185,311.64,146.22c0-15.75-6-25.12-17.46-25.12-15.75,0-19.16,12.34-19.16,26.4v18.3H212.86V145.37c0-48.11,23.41-87.28,81.32-87.28,55.35,0,85.57,34.91,85.57,90.69,0,66.41-56.19,109.83-94.51,157.08Z" style="fill: #fff"/>
    <rect width="426.09" height="536.12" style="fill: none"/>
    <path d="M0,523H425.72V3.62H0m417.2,417.2H8.52V12.13H417.21Z"/>
    <rect width="426.09" height="536.12" style="fill: none"/>
    <path d="M381.26,20.66v3.15h-6.73V45.14h-4V23.81H363.8V20.66ZM408.7,45.14h-4V25.86h-.12L397.8,45.14h-3.2l-6.44-19.28h-.11V45.14h-4V20.66h6.29l6.1,18.21h.12l5.93-18.21h6.18V45.14Z"/>
    <rect width="426.09" height="536.12" style="fill: none"/>
    <polygon points="27.04 491.07 34.27 491.07 40.9 458.79 41.05 458.79 47.98 491.07 54.76 491.07 64.12 451.55 57.64 451.55 51.52 483.87 51.37 483.87 44.81 451.55 37.52 451.55 30.8 483.87 30.65 483.87 24.31 451.55 17.82 451.55 27.04 491.07" style="fill: #fff"/>
    <rect width="426.09" height="536.12" style="fill: none"/>
    <polygon points="74.84 491.07 82.06 491.07 88.7 458.79 88.86 458.79 95.79 491.07 102.55 491.07 111.93 451.55 105.44 451.55 99.32 483.87 99.16 483.87 92.6 451.55 85.3 451.55 78.6 483.87 78.45 483.87 72.11 451.55 65.62 451.55 74.84 491.07" style="fill: #fff"/>
    <rect width="426.09" height="536.12" style="fill: none"/>
    <polygon points="122.63 491.07 129.85 491.07 136.49 458.79 136.64 458.79 143.58 491.07 150.36 491.07 159.72 451.55 153.24 451.55 147.12 483.87 146.97 483.87 140.4 451.55 133.1 451.55 126.39 483.87 126.25 483.87 119.91 451.55 113.41 451.55 122.63 491.07" style="fill: #fff"/>
    <rect width="426.09" height="536.12" style="fill: none"/>
    <rect x="163.21" y="483.27" width="6.77" height="7.8" style="fill: #fff"/>
    <rect width="426.09" height="536.12" style="fill: none"/>
    <path d="M185.33,471.33c0-9,1.1-15.49,8-15.49,5.75,0,7.22,6.06,7.22,14.74,0,10.18-1.47,16.22-7.22,16.22-6.64,0-8-7.81-8-15.47m-5.83,32.73h6.19V486.59h.16a9,9,0,0,0,8.26,5.52c10.24,0,12.9-12.54,12.9-21.53,0-11.71-3.53-20.05-12.9-20.05-4.28,0-7.74,3-8.56,5.9h-.14v-4.88h-5.9v52.51Z" style="fill: #fff;fill-rule: evenodd"/>
    <rect width="426.09" height="536.12" style="fill: none"/>
    <path d="M219,467.19v-1.48c0-2.34.73-10.31,7.22-10.31,5.47,0,6.87,5.22,6.87,9.65v2.14Zm20.57,4.87v-2.5c0-8.49-1.11-19-13.2-19S212.32,462,212.32,471.85c0,13.56,4.06,20.26,13.73,20.26,10.76,0,13.26-9.8,13.26-14h-6.18c0,2.94-.83,9.14-6.72,9.14-7.59,0-7.59-9.14-7.59-15.19Z" style="fill: #fff;fill-rule: evenodd"/>
    <rect width="426.09" height="536.12" style="fill: none"/>
    <path d="M258.63,455.84c6.64,0,8,7.81,8,15.49,0,8.09-1.32,14.45-8,14.45-6.17,0-7.14-8-7.14-14.45,0-9.43,1.47-15.49,7.22-15.49m13.78-4.29h-5.88v5h-.16c-.8-3.11-4.27-6.06-8.55-6.06-10,0-12.89,10.1-12.89,20.8,0,5.23.73,19.75,12.23,19.75,3.9,0,7.58-2,8.93-5.3h.15v5.16c0,2.73.29,8.84-7.69,8.84-3.24,0-6-1.4-6.33-5H246c1,9.87,10.55,9.87,13,9.87,8,0,13.42-4.27,13.42-16.07v-37Z" style="fill: #fff;fill-rule: evenodd"/>
    <rect width="426.09" height="536.12" style="fill: none"/>
    <path d="M280.93,491.08h6.18V451.56h-6.18Zm0-45.56h6.18v-7.09h-6.18Z" style="fill: #fff;fill-rule: evenodd"/>
    <rect width="426.09" height="536.12" style="fill: none"/>
    <rect x="296.97" y="483.27" width="6.79" height="7.8" style="fill: #fff"/>
    <rect width="426.09" height="536.12" style="fill: none"/>
    <path d="M313.65,491.08h6.21V451.56h-6.21Zm0-45.56h6.21v-7.09h-6.21Z" style="fill: #fff;fill-rule: evenodd"/>
    <rect width="426.09" height="536.12" style="fill: none"/>
    <path d="M328.32,491.08h6.18V463.8a7.62,7.62,0,0,1,7.25-8,5.81,5.81,0,0,1,.59,0c5.59,0,5.81,4.94,5.81,8v27.28h6.19v-28c0-4.63,0-12.53-10.39-12.53-3.83,0-8,2.07-9.58,5.69h-.16v-4.67h-5.89v39.51Z" style="fill: #fff"/>
    <rect width="426.09" height="536.12" style="fill: none"/>
    <path d="M364.31,491.08h6.21V456.43h6.77v-4.88h-6.77v-4.63c0-2.73,1.33-3.76,4-3.76h2.87v-5.31h-4.5c-6,0-8.56,3.1-8.56,9.07v4.63h-5.74v4.88h5.74Z" style="fill: #fff"/>
    <rect width="426.09" height="536.12" style="fill: none"/>
    <path d="M379.64,471.33c0,11.12,2.82,20.78,14.24,20.78s14.22-9.66,14.22-20.78-2.8-20.8-14.22-20.8-14.24,9.65-14.24,20.8m14.08,15.93c-6.34,0-7.57-7.4-7.57-15.93s1.32-15.93,7.57-15.93c6.65,0,7.91,7.36,7.91,15.93s-1.33,15.93-7.91,15.93" style="fill: #fff;fill-rule: evenodd"/>
  </g>
</svg>
